<svg xmlns="http://www.w3.org/2000/svg" width="333" height="911" viewBox="0 0 333 911" version="1.1"><path d="" stroke="none" fill="#080404" fill-rule="evenodd"/><path d="M 231.702 7.280 C 230.491 8.533, 228.262 10.099, 226.750 10.758 C 225.238 11.418, 224 12.354, 224 12.839 C 224 13.325, 220.966 15.684, 217.257 18.082 C 203.583 26.926, 189.703 42.183, 170.662 69.304 C 156.764 89.100, 149.922 103.612, 144.614 124.552 C 139.184 145.972, 138.545 152.296, 138.554 184.500 C 138.563 216.695, 139.714 229.302, 145.607 261.734 C 148.194 275.968, 148.194 275.968, 145.087 279.890 C 143.379 282.047, 133.323 291.887, 122.740 301.757 C 104.782 318.507, 74.282 350.106, 61.698 365 C 33.771 398.052, 13.735 434.789, 5.020 468.922 C -1.578 494.763, -1.720 529.094, 4.653 557.921 C 17.001 613.784, 56.232 661.405, 107.222 682.428 C 130.997 692.230, 162.076 696.958, 189.374 694.926 C 197.005 694.358, 205.327 693.505, 207.867 693.030 C 210.855 692.472, 212.708 692.527, 213.115 693.186 C 213.461 693.747, 214.049 697.196, 214.422 700.853 C 214.794 704.509, 216.446 716.007, 218.094 726.403 C 227.583 786.283, 227.102 812.077, 215.994 839.014 C 205.457 864.568, 179.099 887.194, 153.792 892.411 C 143.366 894.560, 139.328 894.482, 138.056 892.105 C 137.499 891.063, 135.613 889.712, 133.865 889.103 C 132.118 888.494, 128.995 886.161, 126.924 883.918 C 123.160 879.841, 123.160 879.841, 129.830 876.366 C 139.151 871.509, 150.202 862.800, 155.496 856.138 C 167.776 840.685, 169.256 819.699, 159.390 800.923 C 150.533 784.069, 136.047 774.981, 118.093 775.017 C 96.472 775.061, 81.332 782.750, 70.255 799.311 C 63.248 809.787, 59.824 820.729, 59.236 834.519 C 58.412 853.837, 63.807 867.991, 76.943 880.978 C 85.852 889.786, 92.847 894.162, 104.239 898.051 C 124.533 904.981, 146.569 904.362, 170.563 896.188 C 200.377 886.031, 218.886 867.544, 228.317 838.500 C 233.708 821.899, 234.500 815.488, 234.496 788.500 C 234.492 764.368, 234.344 762.475, 230.230 734 C 227.885 717.775, 225.637 701.125, 225.234 697 C 224.500 689.500, 224.500 689.500, 239.207 683.823 C 266.122 673.434, 278.523 665.573, 294.706 648.646 C 314.048 628.414, 326.621 603.319, 331.536 575.132 C 333.412 564.375, 333.413 544.627, 331.538 533.881 C 320.730 471.950, 287.495 432.601, 236.098 420.887 C 225.434 418.456, 202.289 417.379, 192.032 418.836 C 187.924 419.419, 184.352 419.685, 184.093 419.426 C 183.835 419.168, 180.854 400.854, 177.470 378.728 C 171.316 338.500, 171.316 338.500, 185.408 323.992 C 246.113 261.496, 270.870 221, 280.160 169 C 282.141 157.912, 281.821 117.017, 279.628 101 C 274.791 65.668, 266.084 40.053, 251.211 17.402 C 245.649 8.933, 244.892 8.195, 240.182 6.654 C 233.880 4.593, 234.330 4.560, 231.702 7.280 M 234.836 57.250 C 199.593 91.826, 167.115 152.376, 157.330 201.752 C 154.818 214.428, 155.035 232.152, 157.920 250 C 159.209 257.975, 160.577 265.093, 160.959 265.818 C 161.436 266.720, 166.552 262.260, 177.191 251.665 C 226.973 202.093, 249.958 168.395, 260.176 130 C 262.794 120.164, 263.308 116.185, 263.729 102.500 C 264.158 88.541, 263.950 85.366, 262.097 77.613 C 259.625 67.272, 257.317 61.710, 252.197 53.759 C 249.618 49.754, 247.859 48.015, 246.382 48.009 C 245.051 48.003, 240.765 51.434, 234.836 57.250 M 139.895 369.750 C 88.353 422.163, 65.114 453.166, 54.212 484.057 C 45.424 508.959, 43.199 541.507, 48.525 567.233 C 50.692 577.702, 56.698 597.991, 59.997 605.992 C 72.495 636.301, 99.635 661.426, 132.235 672.867 C 147.600 678.260, 155.603 679.488, 175 679.431 C 189.455 679.389, 209.555 677.778, 210.769 676.565 C 211.019 676.314, 183.135 493.878, 181.387 484.328 C 180.807 481.157, 180.807 481.157, 177.101 482.465 C 154.586 490.408, 131.711 514.210, 125.649 536 C 123.437 543.951, 122.568 561.171, 123.983 569 C 127.191 586.749, 140.278 605.683, 157.571 617.593 C 162.370 620.898, 162.875 621.554, 161.603 622.825 C 159.167 625.261, 151.180 625.440, 144.821 623.201 C 136.024 620.103, 128.471 614.612, 116.448 602.569 C 99.785 585.879, 92.051 571.703, 88.500 551.341 C 82.907 519.267, 95.160 482.007, 120.407 454.319 C 131.469 442.187, 148.646 430.469, 162.727 425.448 C 167.002 423.924, 170.859 422.367, 171.298 421.990 C 172.182 421.230, 160.949 350, 159.945 350 C 159.599 350, 150.576 358.887, 139.895 369.750 M 196.620 478.681 C 193.823 479.144, 193.757 479.293, 194.310 483.829 C 194.624 486.398, 197.847 510.100, 201.472 536.500 C 208.784 589.755, 211.930 609.915, 218.528 645.819 C 220.988 659.200, 223 671.015, 223 672.074 C 223 674.747, 224.483 674.514, 232.769 670.543 C 261.422 656.812, 281.850 629.264, 289.158 594.500 C 293.518 573.761, 287.757 538.554, 276.498 517.127 C 266.995 499.044, 247.289 485.357, 224 480.666 C 215.717 478.997, 201.103 477.937, 196.620 478.681" stroke="none" fill="#040404" fill-rule="evenodd"/></svg>